#define pumpkin_width 206
#define pumpkin_height 187
static char pumpkin_bits[] = {
 0x00,0x00,0x00,0x00,0x00,0x00,0x00,0x00,0x00,0x00,0x00,0x00,0x00,0x00,0x00,
 0x00,0x00,0x00,0x00,0x00,0x00,0x00,0x00,0x00,0x00,0x00,0x00,0x00,0x00,0x00,
 0x00,0x00,0x00,0x00,0x00,0x00,0x00,0x00,0x00,0x00,0x00,0x00,0x00,0x00,0x00,
 0x00,0x00,0x00,0x00,0x00,0x00,0x00,0x00,0x00,0x00,0x00,0x00,0x00,0x00,0x00,
 0x00,0x00,0x00,0x00,0x00,0x00,0x00,0x00,0x00,0x00,0x00,0x00,0x00,0x00,0x00,
 0x00,0x00,0x00,0x00,0x00,0x00,0x00,0x00,0x00,0x00,0x00,0x00,0x00,0x00,0x00,
 0x00,0x00,0x00,0x00,0x00,0x00,0x00,0x00,0x00,0x00,0x00,0x00,0x00,0x00,0x00,
 0x00,0x00,0x00,0x00,0x00,0x00,0x00,0x00,0x00,0x00,0x00,0x00,0x00,0x00,0x00,
 0x00,0x00,0x00,0x00,0x00,0x00,0x00,0x00,0x00,0x00,0x00,0x00,0x00,0x00,0x00,
 0x00,0x00,0x00,0x00,0x00,0x00,0x00,0x00,0x00,0x00,0x00,0x00,0x00,0x00,0x00,
 0x00,0x00,0x00,0x00,0x00,0x00,0x00,0x00,0x00,0x00,0x00,0x00,0x00,0x00,0x00,
 0x00,0x00,0x00,0x00,0x00,0x00,0x00,0x00,0x00,0x00,0x00,0x00,0x00,0x00,0x00,
 0x00,0x00,0x00,0x00,0x00,0x00,0x00,0x00,0x00,0x00,0x00,0x00,0x00,0x00,0x00,
 0x00,0x00,0x00,0x00,0x00,0x00,0x00,0x00,0x00,0x00,0x00,0x00,0x00,0x00,0x00,
 0x00,0x00,0x00,0x00,0x00,0x00,0x00,0x00,0x00,0x00,0x00,0x00,0x00,0x00,0x00,
 0x00,0x00,0x00,0x00,0x00,0x00,0x00,0x00,0x00,0x00,0x00,0x00,0x00,0x00,0x00,
 0x00,0x00,0x00,0x00,0x00,0x00,0x00,0x00,0x00,0x00,0x00,0x00,0x00,0x00,0x00,
 0x00,0x00,0x00,0x00,0x00,0x00,0x00,0x00,0x00,0x00,0x00,0x00,0x00,0x00,0x00,
 0x00,0x80,0x0f,0x00,0x00,0x00,0x00,0x00,0x00,0x00,0x00,0x00,0x00,0x00,0x00,
 0x00,0x00,0x00,0x00,0x00,0x00,0x00,0x00,0x00,0x00,0x00,0x00,0xe0,0x1a,0x00,
 0x00,0x00,0x00,0x00,0x00,0x00,0x00,0x00,0x00,0x00,0x00,0x00,0x00,0x00,0x00,
 0x00,0x00,0x00,0x00,0x00,0x00,0x00,0x00,0x50,0x15,0x00,0x00,0x00,0x00,0x00,
 0x00,0x00,0x00,0x00,0x00,0x00,0x00,0x00,0x00,0x00,0x00,0x00,0x00,0x00,0x00,
 0x00,0x00,0x00,0x00,0xa8,0x36,0x00,0x00,0x00,0x00,0x00,0x00,0x00,0x00,0x00,
 0x00,0x00,0x00,0x00,0x00,0x00,0x00,0x00,0x00,0x00,0x00,0x00,0x00,0x00,0x00,
 0x54,0x25,0x00,0x00,0x00,0x00,0x00,0x00,0x00,0x00,0x00,0x00,0x00,0x00,0x00,
 0x00,0x00,0x00,0x00,0x00,0x00,0x00,0x00,0x00,0x00,0x00,0xac,0x56,0x00,0x00,
 0x00,0x00,0x00,0x00,0x00,0x00,0x00,0x00,0x00,0x00,0x00,0x00,0x00,0x00,0x00,
 0x00,0x00,0x00,0x00,0x00,0x00,0x00,0xd4,0x47,0x00,0x00,0x00,0x00,0x00,0x00,
 0x00,0x00,0x00,0x00,0x00,0x00,0x00,0x00,0x00,0x00,0x00,0x00,0x00,0x00,0x00,
 0x00,0x00,0x00,0x6c,0x91,0x00,0x00,0x00,0x00,0x00,0x00,0x00,0x00,0x00,0x00,
 0x00,0x00,0x00,0x00,0x00,0x00,0x00,0x00,0x00,0x00,0x00,0x00,0x00,0x00,0x7c,
 0xc5,0x00,0x00,0x00,0x00,0x00,0x00,0x00,0x00,0x00,0x00,0x00,0x00,0x00,0x00,
 0x00,0x00,0x00,0x00,0x00,0x00,0x00,0x00,0x00,0x00,0x38,0x13,0x01,0x00,0x00,
 0x00,0x00,0x00,0x00,0x00,0x00,0x00,0x00,0x00,0x00,0x00,0x00,0x00,0x00,0x00,
 0x00,0x00,0x00,0x00,0x00,0x00,0x48,0x46,0x01,0x00,0x00,0x00,0x00,0x00,0x00,
 0x00,0x00,0x00,0x00,0x00,0x00,0x00,0x00,0x00,0x00,0x00,0x00,0x00,0x00,0x00,
 0x00,0x00,0x50,0x15,0x03,0x00,0x00,0x00,0x00,0x00,0x00,0x00,0x00,0x00,0x00,
 0x00,0x00,0x00,0x00,0x00,0x00,0x00,0x00,0x00,0x00,0x00,0x00,0x00,0xd0,0x44,
 0x02,0x00,0x00,0x00,0x00,0x00,0x00,0x00,0x00,0x00,0x00,0x00,0x00,0x00,0x00,
 0x00,0x00,0x00,0x00,0x00,0x00,0x00,0x00,0x00,0xa0,0x19,0x05,0x00,0x00,0x00,
 0x00,0x00,0x00,0x00,0x00,0x00,0x00,0x00,0x00,0x00,0x00,0x00,0x00,0x00,0x00,
 0x00,0x00,0x00,0x00,0x00,0xe0,0x4c,0x04,0x00,0x00,0x00,0x00,0x00,0x00,0x00,
 0x00,0x00,0x00,0x00,0x00,0x00,0x00,0x00,0x00,0x00,0x00,0x00,0x00,0x00,0x00,
 0x00,0x40,0x19,0x09,0x00,0x00,0x00,0x00,0x00,0x00,0x00,0x00,0x00,0x00,0x00,
 0x00,0x00,0x00,0x00,0x00,0x00,0x00,0x00,0x00,0x00,0x00,0x00,0x40,0x4d,0x0c,
 0x00,0x00,0x00,0x00,0x00,0x00,0x00,0x00,0x00,0x00,0x00,0x00,0x00,0x00,0x00,
 0x00,0x00,0x00,0x00,0x00,0x00,0x00,0x00,0x80,0x1b,0x09,0x00,0x00,0x00,0x00,
 0x00,0x00,0x00,0x00,0x00,0x00,0x00,0x00,0x00,0x00,0x00,0x00,0x00,0x00,0x00,
 0x00,0x00,0x00,0x00,0x80,0x56,0x14,0x00,0x00,0x00,0x00,0x00,0x00,0x00,0x00,
 0x00,0x00,0x00,0x00,0x00,0x00,0x00,0x00,0x00,0x00,0x00,0x00,0x00,0x00,0x00,
 0x80,0x13,0x11,0x00,0x00,0x00,0x00,0x00,0x00,0x00,0x00,0x00,0x00,0x00,0x00,
 0x00,0x00,0x00,0x00,0x00,0x00,0x00,0x00,0x00,0x00,0x00,0x80,0x56,0x14,0x00,
 0x00,0x00,0x00,0x00,0x00,0x00,0x00,0x00,0x00,0x00,0x00,0x00,0x00,0x00,0x00,
 0x00,0x00,0x00,0x00,0x00,0x00,0x00,0x80,0x15,0x11,0x00,0x00,0x00,0x00,0x00,
 0x00,0x00,0x00,0x00,0x00,0x00,0x00,0x00,0x00,0x00,0x00,0x00,0x00,0x00,0x00,
 0x00,0x00,0x00,0x80,0x44,0x24,0x00,0x00,0x00,0x00,0x00,0x00,0x00,0x00,0x00,
 0x00,0x00,0x00,0x00,0x00,0x00,0x00,0x00,0x00,0x00,0x00,0x00,0x00,0x00,0x80,
 0x15,0x31,0x00,0x00,0x00,0x00,0x00,0x00,0x00,0x00,0x00,0x00,0x00,0x00,0x00,
 0x00,0x00,0x00,0x00,0x00,0x00,0x00,0x00,0x00,0x00,0x00,0x45,0x24,0x00,0x00,
 0x00,0x00,0x00,0x00,0x00,0x00,0x00,0x00,0x00,0x00,0x00,0x00,0x00,0x00,0x00,
 0x00,0x00,0x00,0x00,0x00,0x00,0x00,0x15,0x31,0x00,0x00,0x00,0x00,0x00,0x00,
 0x00,0x00,0x00,0x00,0x00,0x00,0x00,0x00,0x00,0x00,0x00,0x00,0x00,0x00,0x00,
 0x00,0x00,0x00,0x45,0x44,0x00,0x00,0x00,0x00,0x00,0x00,0x00,0x00,0x00,0x00,
 0x00,0x00,0x00,0x00,0x00,0x00,0x00,0x00,0x00,0x00,0x00,0x00,0x00,0x00,0x19,
 0x51,0x00,0x00,0x00,0x00,0x00,0x00,0x00,0x00,0x00,0x00,0x00,0x00,0x00,0x00,
 0x00,0x00,0x00,0x00,0x00,0x00,0x00,0x00,0x00,0x00,0x4d,0x44,0x00,0x00,0x00,
 0x00,0x00,0x00,0x00,0x00,0x00,0x00,0x00,0x00,0x00,0x00,0x00,0x00,0x00,0x00,
 0x00,0x00,0x00,0x00,0x00,0x00,0x19,0x51,0x00,0x00,0x00,0x00,0x00,0x00,0x00,
 0x00,0x00,0x00,0x00,0x00,0x00,0x00,0x00,0x00,0x00,0x00,0x00,0x00,0x00,0x00,
 0x00,0x00,0x4d,0x44,0x00,0x00,0x00,0x00,0x00,0x00,0x00,0x00,0x00,0x00,0x00,
 0x00,0x00,0x00,0x00,0x00,0x00,0x00,0x00,0x00,0x00,0x00,0x00,0x00,0x19,0x91,
 0x00,0x00,0x00,0x00,0x00,0x00,0x00,0x00,0x00,0x00,0x00,0x00,0x00,0x00,0x00,
 0x00,0x00,0x00,0x00,0x00,0x00,0x00,0x00,0x00,0x4d,0xc4,0x00,0x00,0x00,0x00,
 0x00,0x00,0x00,0x00,0x00,0x00,0x00,0x00,0x00,0x00,0x00,0x00,0x00,0x00,0x00,
 0x00,0x00,0x00,0x00,0x00,0x19,0x91,0x00,0x00,0x00,0x00,0x00,0x00,0x00,0x00,
 0x00,0x00,0x00,0x00,0x00,0x00,0x00,0x00,0x00,0x00,0x00,0x00,0x00,0x00,0x00,
 0x80,0x44,0xc4,0x00,0x00,0x00,0x00,0x00,0x00,0x00,0x00,0x00,0x00,0x00,0x00,
 0x00,0x00,0x00,0x00,0x00,0x00,0x00,0x00,0x00,0x00,0x00,0x80,0x15,0x11,0x01,
 0x00,0x00,0x00,0x00,0x00,0x00,0x00,0x00,0x00,0x00,0x00,0x00,0x00,0x00,0x00,
 0x00,0x00,0x00,0x00,0x00,0x00,0x00,0x80,0x44,0x44,0x01,0x00,0x00,0x00,0x00,
 0x00,0x00,0x00,0x00,0x00,0x00,0x00,0x00,0x00,0x00,0x00,0x00,0x00,0x00,0xf8,
 0x07,0x00,0x00,0x80,0x15,0x11,0x01,0x00,0x00,0xff,0x01,0x00,0x00,0x00,0x00,
 0x00,0x00,0x00,0x00,0x00,0x00,0x00,0x00,0x00,0x00,0x47,0xf8,0x0f,0x00,0x40,
 0x44,0x44,0x01,0x00,0xff,0x40,0x0e,0x00,0x00,0x00,0x00,0x00,0x00,0x00,0x00,
 0x00,0x00,0x00,0x00,0x00,0xf0,0x00,0x00,0x70,0x00,0x40,0x11,0x11,0x01,0xe0,
 0x00,0x00,0xf0,0x00,0x00,0x00,0x00,0x00,0x00,0x00,0x00,0x00,0x00,0x00,0x00,
 0x00,0x0e,0x04,0x04,0x84,0x01,0x40,0x44,0x44,0x01,0x18,0x04,0x04,0x04,0x07,
 0x00,0x00,0x00,0x00,0x00,0x00,0x00,0x00,0x00,0x00,0x00,0xc0,0x01,0x00,0x00,
 0x00,0x0e,0x20,0x11,0x11,0x03,0x07,0x00,0x00,0x00,0x38,0x00,0x00,0x00,0x00,
 0x00,0x00,0x00,0x00,0x00,0x00,0x00,0x70,0x40,0x40,0x40,0x40,0x70,0x60,0x44,
 0x44,0xe2,0x40,0x40,0x40,0x40,0xc0,0x00,0x00,0x00,0x00,0x00,0x00,0x00,0x00,
 0x00,0x00,0x00,0x0e,0x00,0x00,0x00,0x00,0x80,0x23,0x11,0x11,0x1f,0x00,0x00,
 0x00,0x00,0x00,0x03,0x00,0x00,0x00,0x00,0x00,0x00,0x00,0x00,0x00,0x80,0x05,
 0x04,0x04,0x04,0xfe,0x07,0x5c,0x44,0x44,0x07,0xff,0x07,0x04,0x04,0x04,0x1c,
 0x00,0x00,0x00,0x00,0x00,0x00,0x00,0x00,0x00,0x60,0x00,0x00,0x00,0xff,0x01,
 0xf8,0x1f,0x11,0xd1,0xff,0x00,0xf8,0x1f,0x00,0x00,0x60,0x00,0x00,0x00,0x00,
 0x00,0x00,0x00,0x00,0x00,0x58,0x40,0x40,0xf0,0x40,0x40,0x78,0xfe,0xff,0xff,
 0xe3,0x41,0x40,0xe0,0x40,0x40,0xc0,0x01,0x00,0x00,0x00,0x00,0x00,0x00,0x00,
 0x00,0x04,0x00,0x00,0x0e,0x00,0x80,0x07,0x80,0x07,0x0e,0x00,0x1e,0x00,0x00,
 0x0f,0x00,0x00,0x02,0x00,0x00,0x00,0x00,0x00,0x00,0x00,0x00,0x07,0x04,0xe4,
 0x05,0x04,0x64,0x04,0x84,0x05,0x1c,0x04,0x64,0x04,0x04,0x74,0x04,0x04,0x0c,
 0x00,0x00,0x00,0x00,0x00,0x00,0x00,0x80,0x00,0x00,0x18,0x00,0x00,0x18,0x00,
 0x40,0x00,0x20,0x00,0x80,0x01,0x00,0x80,0x01,0x00,0x10,0x00,0x00,0x00,0x00,
 0x00,0x00,0x00,0x40,0x40,0x40,0x44,0x40,0x40,0x46,0x40,0x40,0x40,0x60,0x40,
 0x40,0x46,0x40,0x40,0x46,0x40,0x20,0x00,0x00,0x00,0x00,0x00,0x00,0x00,0x30,
 0x00,0x00,0x03,0x00,0x80,0x01,0x00,0x20,0x00,0x40,0x00,0x00,0x18,0x00,0x00,
 0x08,0x00,0xc0,0x00,0x00,0x00,0x00,0x00,0x00,0x00,0x08,0x04,0x84,0x04,0x04,
 0x44,0x04,0x04,0x24,0x04,0x84,0x04,0x04,0x24,0x04,0x04,0x14,0x04,0x04,0x01,
 0x00,0x00,0x00,0x00,0x00,0x00,0x04,0x00,0x40,0x00,0x00,0x20,0x00,0x00,0x10,
 0x00,0x80,0x00,0x00,0x40,0x00,0x00,0x60,0x00,0x00,0x02,0x00,0x00,0x00,0x00,
 0x00,0x00,0x42,0x40,0x60,0x40,0x40,0x58,0x40,0x40,0x48,0x40,0x40,0x41,0x40,
 0xc0,0x40,0x40,0xc0,0x40,0x40,0x04,0x00,0x00,0x00,0x00,0x00,0x00,0x01,0x00,
 0x18,0x00,0x00,0x04,0x00,0x00,0x08,0x00,0x00,0x01,0x00,0x00,0x01,0x00,0x00,
 0x01,0x00,0x08,0x00,0x00,0x00,0x00,0x00,0x80,0x04,0x04,0x04,0x04,0x04,0xe6,
 0x07,0x04,0x04,0x04,0x04,0x06,0x84,0x07,0x06,0x04,0x04,0x06,0x04,0x14,0x00,
 0x00,0x00,0x00,0x00,0x80,0x00,0x00,0x02,0x00,0x00,0xbf,0x02,0x00,0x04,0x00,
 0x00,0x02,0x80,0xfa,0x04,0x00,0x00,0x08,0x00,0x20,0x00,0x00,0x00,0x00,0x00,
 0x40,0x40,0x40,0x41,0x40,0xc0,0x55,0x45,0x40,0x42,0x40,0x40,0x44,0x40,0x55,
 0x4b,0x40,0x40,0x50,0x40,0x20,0x00,0x00,0x00,0x00,0x00,0x20,0x00,0x80,0x00,
 0x00,0xe0,0xaa,0x06,0x00,0x02,0x00,0x00,0x04,0xc0,0xaa,0x1e,0x00,0x00,0x20,
 0x00,0x40,0x00,0x00,0x00,0x00,0x00,0x10,0x04,0x44,0x04,0x04,0x5c,0x55,0x0d,
 0x04,0x05,0x04,0x04,0x0c,0x64,0x55,0x35,0x04,0x04,0x44,0x04,0x84,0x00,0x00,
 0x00,0x00,0x00,0x08,0x00,0x20,0x00,0x00,0xae,0xaa,0x0e,0x00,0x01,0x00,0x00,
 0x08,0xe0,0xaa,0xea,0x00,0x00,0x80,0x00,0x00,0x01,0x00,0x00,0x00,0x00,0x44,
 0x40,0x50,0x40,0x40,0x55,0x55,0x5d,0xc0,0x40,0x40,0x40,0x50,0x60,0x55,0x55,
 0x41,0x40,0xc0,0x40,0x40,0x02,0x00,0x00,0x00,0x00,0x04,0x00,0x08,0x00,0x80,
 0xaa,0xaa,0x1e,0x80,0x00,0x00,0x00,0x10,0xf0,0xaa,0xaa,0x02,0x00,0x00,0x01,
 0x00,0x02,0x00,0x00,0x00,0x00,0x06,0x04,0x04,0x04,0x44,0x55,0xd5,0x1f,0x44,
 0x04,0x04,0x04,0x24,0xf4,0x57,0x55,0x05,0x04,0x04,0x06,0x04,0x04,0x00,0x00,
 0x00,0x00,0x02,0x00,0x02,0x00,0xa0,0xaa,0xea,0x3f,0x40,0x00,0x00,0x00,0x20,
 0xf8,0xaf,0xaa,0x0a,0x00,0x00,0x04,0x00,0x04,0x00,0x00,0x00,0x00,0x41,0x40,
 0x41,0x40,0x58,0x55,0xfd,0x7f,0x60,0x40,0x40,0x40,0x40,0xf8,0x7f,0x55,0x75,
 0x40,0x40,0x48,0x40,0x08,0x00,0x00,0x00,0x00,0x01,0x00,0x01,0x00,0xac,0xaa,
 0xff,0x7f,0x20,0x00,0x00,0x00,0x40,0xfc,0xff,0xab,0x6a,0x00,0x00,0x10,0x00,
 0x08,0x00,0x00,0x00,0x80,0x04,0x84,0x04,0x04,0x56,0xd5,0xff,0x7f,0x14,0x04,
 0x04,0x04,0x84,0xfc,0xff,0x57,0xd5,0x04,0x04,0x14,0x04,0x14,0x00,0x00,0x00,
 0x80,0x00,0x80,0x00,0x00,0xab,0xea,0xff,0x7f,0x10,0x00,0x00,0x00,0x80,0xfc,
 0xff,0xaf,0xaa,0x01,0x00,0x20,0x00,0x10,0x00,0x00,0x00,0x40,0x40,0x40,0x40,
 0xc0,0x55,0xd5,0xff,0x7f,0x50,0x40,0x40,0x40,0xc0,0xfc,0xff,0x57,0x55,0x43,
 0x40,0x60,0x40,0x20,0x00,0x00,0x00,0x40,0x00,0x40,0x00,0x80,0xaa,0xea,0xff,
 0xff,0x08,0x00,0x00,0x00,0x00,0xff,0xff,0xaf,0xaa,0x02,0x00,0x40,0x00,0x20,
 0x00,0x00,0x00,0x20,0x04,0x24,0x04,0x44,0x55,0xf5,0xff,0xff,0x0c,0x04,0x04,
 0x04,0x04,0xff,0xff,0x5f,0x55,0x05,0x04,0x44,0x04,0x44,0x00,0x00,0x00,0x20,
 0x00,0x20,0x00,0xc0,0xaa,0xfa,0xff,0xff,0x08,0x00,0x00,0x00,0x00,0xff,0xff,
 0xbf,0xaa,0x06,0x00,0x80,0x00,0x40,0x00,0x00,0x00,0x60,0x40,0x50,0x40,0x60,
 0x55,0xfd,0xff,0xff,0x44,0x40,0x40,0x40,0x40,0xfe,0xff,0x7f,0x55,0x4d,0x40,
 0xc0,0x40,0x40,0x00,0x00,0x00,0x20,0x00,0x10,0x00,0xa0,0xaa,0xfe,0xff,0xff,
 0x05,0x00,0x00,0x00,0x00,0xff,0xff,0xff,0xaa,0x0a,0x00,0x00,0x01,0x40,0x00,
 0x00,0x00,0x10,0x04,0x0c,0x04,0x54,0x55,0xff,0xff,0xff,0x05,0x04,0x04,0x04,
 0x04,0xff,0xff,0xff,0x55,0x15,0x04,0x04,0x05,0x84,0x00,0x00,0x00,0x10,0x00,
 0x08,0x00,0xb0,0xaa,0xff,0xff,0xff,0x05,0x00,0x00,0x00,0x00,0xff,0xff,0xff,
 0xab,0x1a,0x00,0x00,0x02,0x80,0x00,0x00,0x00,0x50,0x40,0x44,0x40,0x50,0x55,
 0xff,0xff,0xff,0x43,0x40,0x40,0x40,0x40,0xff,0xff,0xff,0x55,0x55,0x40,0x40,
 0x42,0xc0,0x00,0x00,0x00,0x10,0x00,0x04,0x00,0xa8,0xaa,0xff,0xff,0xff,0x03,
 0x00,0x00,0x00,0x00,0xff,0xff,0xff,0xab,0x2a,0x00,0x00,0x02,0x80,0x00,0x00,
 0x00,0x08,0x04,0x06,0x04,0x5c,0xd5,0xff,0xff,0xff,0x07,0x04,0x04,0x04,0x84,
 0xff,0xff,0xff,0x57,0x35,0x04,0x04,0x04,0x04,0x01,0x00,0x00,0x08,0x00,0x02,
 0x00,0xac,0xea,0xff,0xff,0xff,0x03,0x00,0x00,0x00,0x80,0xff,0xff,0xff,0xaf,
 0x6a,0x00,0x00,0x04,0x00,0x01,0x00,0x00,0x48,0x40,0x42,0x40,0x54,0xd5,0xff,
 0xff,0xff,0x43,0x40,0x40,0x40,0xc0,0xff,0xff,0xff,0x57,0x55,0x40,0x40,0x44,
 0x40,0x01,0x00,0x00,0x08,0x00,0x01,0x00,0xaa,0xea,0xff,0xff,0xff,0x03,0x00,
 0x00,0x00,0x80,0xff,0xff,0xff,0xaf,0xaa,0x00,0x00,0x08,0x00,0x01,0x00,0x00,
 0x08,0x04,0x05,0x04,0xfe,0xff,0xff,0xff,0xff,0x07,0x04,0x14,0x04,0xc4,0xff,
 0xff,0xff,0xff,0xff,0x04,0x04,0x0c,0x04,0x01,0x00,0x00,0x08,0x00,0x01,0x00,
 0x00,0x02,0x00,0xf8,0xff,0x07,0x00,0x28,0x00,0xc0,0xff,0x3f,0x00,0x00,0x04,
 0x00,0x00,0x08,0x00,0x01,0x00,0x00,0x48,0xc0,0x40,0x40,0x40,0x41,0x40,0x40,
 0xe0,0x47,0x40,0x78,0x40,0xc0,0x5f,0x40,0x40,0x40,0x48,0x40,0x40,0x50,0x40,
 0x01,0x00,0x00,0x04,0x80,0x00,0x00,0x00,0x01,0x00,0x00,0x80,0x00,0x00,0x6c,
 0x00,0x00,0x10,0x00,0x00,0x00,0x08,0x00,0x00,0x10,0x00,0x02,0x00,0x00,0x04,
 0x84,0x04,0x04,0x04,0x05,0x04,0x04,0x84,0x04,0x04,0xd4,0x04,0x04,0x14,0x04,
 0x04,0x04,0x0c,0x04,0x04,0x14,0x04,0x02,0x00,0x00,0x04,0x40,0x00,0x00,0x80,
 0x00,0x00,0x00,0x80,0x00,0x00,0xaa,0x00,0x00,0x10,0x00,0x00,0x00,0x10,0x00,
 0x00,0x20,0x00,0x02,0x00,0x00,0x44,0x40,0x40,0x40,0xc0,0x40,0x40,0x40,0x40,
 0x40,0x40,0x76,0x41,0x40,0x60,0x40,0x40,0x40,0x50,0x40,0x40,0x60,0x40,0x02,
 0x00,0x00,0x04,0x40,0x00,0x00,0x80,0x00,0x00,0x00,0x40,0x00,0x00,0xeb,0x02,
 0x00,0x20,0x00,0x00,0x00,0x10,0x00,0x00,0x20,0x00,0x02,0x00,0x00,0x04,0x44,
 0x04,0x04,0x84,0x04,0x04,0x04,0x44,0x04,0x04,0x75,0x05,0x04,0x24,0x04,0x04,
 0x04,0x14,0x04,0x04,0x24,0x04,0x02,0x00,0x00,0x04,0x40,0x00,0x00,0x40,0x00,
 0x00,0x00,0x40,0x00,0x80,0xfa,0x06,0x00,0x20,0x00,0x00,0x00,0x20,0x00,0x00,
 0x20,0x00,0x02,0x00,0x00,0x44,0x40,0x40,0x40,0x40,0x40,0x40,0x40,0x40,0x40,
 0x40,0xfd,0x4d,0x40,0x60,0x40,0x40,0x40,0x60,0x40,0x40,0x60,0x40,0x02,0x00,
 0x00,0x04,0x40,0x00,0x00,0x40,0x00,0x00,0x00,0x40,0x00,0xc0,0xfa,0x1b,0x00,
 0x20,0x00,0x00,0x00,0x20,0x00,0x00,0x20,0x00,0x02,0x00,0x00,0x04,0x44,0x04,
 0x04,0x44,0x04,0x04,0x04,0x44,0x04,0x64,0xfd,0x17,0x04,0x24,0x04,0x04,0x04,
 0x24,0x04,0x04,0x24,0x04,0x02,0x00,0x00,0x02,0x20,0x00,0x00,0x20,0x00,0x00,
 0x00,0x40,0x00,0xa0,0xfe,0x2b,0x00,0x20,0x00,0x00,0x00,0x40,0x00,0x00,0x40,
 0x00,0x04,0x00,0x00,0x42,0x60,0x40,0x40,0x60,0x40,0x40,0x40,0x40,0x40,0x50,
 0xff,0x57,0x40,0x60,0x40,0x40,0x40,0x40,0x40,0x40,0x40,0x40,0x04,0x00,0x00,
 0x02,0x20,0x00,0x00,0x20,0x00,0x00,0x00,0x40,0x00,0xb0,0xfe,0x6f,0x00,0x20,
 0x00,0x00,0x00,0x40,0x00,0x00,0x40,0x00,0x04,0x00,0x00,0x06,0x24,0x04,0x04,
 0x24,0x04,0x04,0x04,0x24,0x04,0x5c,0xff,0xdf,0x04,0x44,0x04,0x04,0x04,0x44,
 0x04,0x04,0x44,0x04,0x04,0x00,0x00,0x02,0x20,0x00,0x00,0x20,0x00,0x00,0x00,
 0x20,0x00,0xa8,0xff,0xbf,0x01,0x40,0x00,0x00,0x00,0x40,0x00,0x00,0x40,0x00,
 0x04,0x00,0x00,0x42,0x60,0x40,0x40,0x60,0x40,0x40,0x40,0x60,0x40,0xd4,0xff,
 0x5f,0x41,0x40,0x40,0x40,0x40,0x40,0x40,0x40,0x40,0x40,0x04,0x00,0x00,0x02,
 0x20,0x00,0x00,0x20,0x00,0x00,0x00,0x20,0x00,0xac,0xff,0xbf,0x02,0x40,0x00,
 0x00,0x00,0x40,0x00,0x00,0x40,0x00,0x04,0x00,0x00,0x06,0x24,0x04,0x04,0x24,
 0x04,0x04,0x04,0x24,0x04,0xd6,0xff,0x7f,0x05,0x44,0x04,0x04,0x04,0x44,0x04,
 0x04,0x44,0x04,0x04,0x00,0x00,0x04,0x20,0x00,0x00,0x20,0x00,0x00,0x00,0x20,
 0x00,0xeb,0xff,0xff,0x06,0x40,0x00,0x00,0x00,0x40,0x00,0x00,0x40,0x00,0x02,
 0x00,0x00,0x44,0x60,0x40,0x40,0x60,0x40,0x40,0x40,0x60,0x40,0xf5,0xff,0x7f,
 0x4d,0x40,0x40,0x40,0x40,0x40,0x40,0x40,0x40,0x40,0x02,0x00,0x00,0x04,0x20,
 0x00,0x00,0x20,0x00,0x00,0x00,0x20,0x80,0xea,0xff,0xff,0x1a,0x40,0x00,0x00,
 0x00,0x40,0x00,0x00,0x40,0x00,0x02,0x00,0x00,0x04,0x24,0x04,0x04,0x24,0x04,
 0x04,0x04,0x24,0x84,0xf5,0xff,0xff,0x35,0x44,0x04,0x04,0x04,0x44,0x04,0x04,
 0x44,0x04,0x02,0x00,0x00,0x08,0x20,0x00,0x00,0x20,0x00,0x00,0x00,0x40,0xc0,
 0xfa,0xff,0xff,0x2b,0x20,0x00,0x00,0x00,0x40,0x00,0x00,0x40,0x00,0x01,0x00,
 0x00,0x48,0x40,0x40,0x40,0x60,0x40,0x40,0x40,0x40,0x40,0xfd,0xff,0xff,0x57,
 0x60,0x40,0x40,0x40,0x40,0x40,0x40,0x60,0x40,0x01,0x00,0x00,0x08,0x40,0x00,
 0x00,0x60,0x00,0x00,0x00,0x40,0xa0,0xfa,0xff,0xff,0xab,0x20,0x00,0x00,0x00,
 0x48,0x00,0x00,0x20,0x00,0x01,0x00,0x00,0x08,0x44,0x04,0x04,0xa4,0x04,0x04,
 0x04,0x44,0x64,0xfd,0xff,0xff,0xd7,0x24,0x04,0x04,0x04,0x4c,0x04,0x04,0x24,
 0x04,0x01,0x00,0x00,0x10,0x40,0x00,0x00,0xa0,0x03,0x00,0x00,0x40,0xf0,0xff,
 0xff,0xff,0xff,0x21,0x00,0x00,0x00,0x4c,0x00,0x00,0x20,0x80,0x00,0x00,0x00,
 0x50,0x40,0x40,0x40,0x60,0x45,0x40,0x40,0x40,0x40,0x40,0x40,0x40,0x40,0x60,
 0x40,0x40,0x40,0x46,0x40,0x40,0x60,0xc0,0x00,0x00,0x00,0x10,0x40,0x00,0x00,
 0x20,0x0b,0x00,0x00,0x40,0x00,0x00,0x00,0x00,0x00,0x20,0x00,0x00,0x00,0x47,
 0x00,0x00,0x20,0x80,0x00,0x00,0x00,0x10,0x44,0x04,0x04,0x24,0x16,0x04,0x04,
 0x44,0x04,0x04,0x04,0x04,0x04,0x24,0x04,0x04,0xc4,0x47,0x04,0x04,0x24,0x84,
 0x00,0x00,0x00,0x20,0x40,0x00,0x00,0x20,0x7a,0x00,0x00,0x40,0x00,0x00,0x00,
 0x00,0x00,0x20,0x00,0x00,0xe0,0x47,0x00,0x00,0x20,0x40,0x00,0x00,0x00,0x60,
 0xc0,0x40,0x40,0x60,0xf4,0x40,0x40,0x40,0x40,0x40,0x40,0x40,0x40,0x60,0x40,
 0x40,0xf0,0x43,0x40,0x40,0x60,0x40,0x00,0x00,0x00,0x20,0x80,0x00,0x00,0x20,
 0xec,0x03,0x00,0x80,0x00,0x00,0x00,0x00,0x00,0x10,0x00,0x00,0xfc,0x42,0x00,
 0x00,0x10,0x40,0x00,0x00,0x00,0x20,0x84,0x04,0x04,0x24,0xdc,0x1f,0x04,0x84,
 0x04,0x04,0x04,0x04,0x04,0x14,0x04,0x04,0xfe,0x47,0x04,0x04,0x14,0x44,0x00,
 0x00,0x00,0x40,0x00,0x01,0x00,0x20,0xa8,0xff,0x00,0x80,0x00,0x00,0x00,0x00,
 0x00,0x10,0x00,0x80,0xff,0x42,0x00,0x00,0x10,0x20,0x00,0x00,0x00,0x40,0x40,
 0x41,0x40,0x60,0x50,0xff,0x47,0xc0,0x40,0x40,0x40,0x40,0x40,0x50,0x40,0xf8,
 0x7f,0x41,0x40,0x40,0x50,0x20,0x00,0x00,0x00,0x40,0x00,0x01,0x00,0x40,0xb0,
 0xff,0x3f,0x80,0x00,0x00,0x00,0x00,0x00,0x10,0x00,0xff,0xbf,0x21,0x00,0x00,
 0x08,0x20,0x00,0x00,0x00,0x80,0x04,0x05,0x04,0x44,0x64,0xff,0xff,0x85,0x04,
 0x04,0x04,0x04,0x04,0x14,0xe4,0xff,0x5f,0x25,0x04,0x04,0x0c,0x14,0x00,0x00,
 0x00,0x80,0x00,0x02,0x00,0x40,0xa0,0xfe,0xff,0x1f,0x01,0x00,0x00,0x00,0x00,
 0x08,0xfe,0xff,0xbf,0x20,0x00,0x00,0x08,0x10,0x00,0x00,0x00,0x00,0x41,0x42,
 0x40,0x40,0x40,0xfd,0xff,0xff,0x47,0x40,0x40,0x40,0xfc,0xff,0xff,0xff,0xdf,
 0x60,0x40,0x40,0x48,0x08,0x00,0x00,0x00,0x00,0x01,0x02,0x00,0x80,0x80,0xfa,
 0xff,0xff,0xff,0x01,0x00,0x00,0xfc,0xff,0xff,0xff,0x6f,0x10,0x00,0x00,0x04,
 0x08,0x00,0x00,0x00,0x00,0x06,0x04,0x04,0x84,0x04,0xf5,0xff,0xff,0xff,0x1f,
 0x04,0x04,0xfc,0xff,0xff,0xff,0x57,0x14,0x04,0x04,0x04,0x04,0x00,0x00,0x00,
 0x00,0x02,0x04,0x00,0x80,0x00,0xea,0xff,0xff,0xff,0x1f,0x00,0x00,0xfc,0xff,
 0xff,0xff,0x2b,0x10,0x00,0x00,0x04,0x04,0x00,0x00,0x00,0x00,0x44,0x48,0x40,
 0xc0,0x40,0xd4,0xff,0xff,0xff,0x5f,0x40,0x40,0xfc,0xff,0x7f,0xff,0x77,0x50,
 0x40,0x40,0x42,0x02,0x00,0x00,0x00,0x00,0x04,0x08,0x00,0x00,0x01,0xa8,0xff,
 0xff,0xff,0x1f,0x00,0x00,0xfc,0xff,0xab,0xfe,0x1b,0x08,0x00,0x00,0x02,0x02,
 0x00,0x00,0x00,0x00,0x08,0x14,0x04,0x04,0x05,0x54,0xff,0xff,0xff,0x1f,0x04,
 0x04,0xfc,0x7f,0xf5,0xfd,0x15,0x0c,0x04,0x04,0x05,0x01,0x00,0x00,0x00,0x00,
 0x08,0x10,0x00,0x00,0x02,0xa0,0xfe,0xff,0xff,0x1f,0x00,0x00,0xfc,0xbf,0x1e,
 0xf8,0x0a,0x04,0x00,0x80,0x00,0x01,0x00,0x00,0x00,0x00,0x50,0x60,0x40,0x40,
 0x42,0x40,0xfd,0xff,0xff,0x5f,0x40,0x40,0xfc,0xdf,0x43,0x58,0x45,0x44,0x40,
 0xc0,0xc0,0x00,0x00,0x00,0x00,0x00,0x10,0x20,0x00,0x00,0x04,0x80,0xfa,0xff,
 0xff,0x1f,0x00,0x00,0xfc,0x3f,0x00,0xa8,0x02,0x02,0x00,0x40,0x80,0x00,0x00,
 0x00,0x00,0x00,0x20,0x44,0x04,0x04,0x04,0x04,0xd7,0xff,0xff,0x1f,0x04,0x04,
 0xfc,0x1f,0x04,0xdc,0x05,0x06,0x04,0x44,0x44,0x00,0x00,0x00,0x00,0x00,0x20,
 0x40,0x00,0x00,0x08,0x00,0xac,0xff,0xff,0x1f,0x00,0x00,0xfc,0x1f,0x00,0x70,
 0x00,0x01,0x00,0x20,0x40,0x00,0x00,0x00,0x00,0x00,0x40,0xc0,0x40,0x40,0x50,
 0x40,0x70,0xfd,0xff,0x5f,0x40,0x40,0xfc,0x5f,0x40,0x70,0xc0,0x40,0x40,0x50,
 0x20,0x00,0x00,0x00,0x00,0x00,0x40,0x80,0x00,0x00,0x10,0x00,0xc0,0xfa,0xff,
 0x1f,0x00,0x00,0xfc,0x1f,0x00,0x10,0x80,0x00,0x00,0x10,0x20,0x00,0x00,0x00,
 0x00,0x00,0x80,0x04,0x05,0x04,0x24,0x04,0x04,0xd7,0xff,0xff,0xff,0xff,0xff,
 0x1f,0x04,0x04,0x44,0x04,0x04,0x0c,0x14,0x00,0x00,0x00,0x00,0x00,0x80,0x00,
 0x02,0x00,0x20,0x00,0x00,0xb8,0xfe,0xff,0xff,0xff,0xff,0x1b,0x00,0x00,0x40,
 0x00,0x00,0x04,0x10,0x00,0x00,0x00,0x00,0x00,0x00,0x41,0x44,0x40,0x40,0x40,
 0x40,0x60,0xd5,0xff,0xff,0xff,0x7f,0x55,0x40,0x40,0x60,0x40,0x40,0x42,0x08,
 0x00,0x00,0x00,0x00,0x00,0x00,0x02,0x08,0x00,0x80,0x00,0x00,0x80,0xaf,0xea,
 0xff,0xff,0xab,0x1e,0x00,0x00,0x10,0x00,0x00,0x02,0x04,0x00,0x00,0x00,0x00,
 0x00,0x00,0x04,0x14,0x04,0x04,0x05,0x04,0x04,0xfc,0x55,0x55,0x55,0xf5,0x07,
 0x04,0x04,0x0c,0x04,0x04,0x05,0x02,0x00,0x00,0x00,0x00,0x00,0x00,0x08,0x20,
 0x00,0x00,0x02,0x00,0x00,0x00,0xff,0xaa,0xfe,0x1f,0x00,0x00,0x00,0x04,0x00,
 0x80,0x00,0x01,0x00,0x00,0x00,0x00,0x00,0x00,0x50,0x60,0x40,0x40,0x44,0x40,
 0x40,0x40,0xc2,0xff,0x43,0x44,0x40,0x40,0x40,0x44,0x40,0x40,0x40,0x01,0x00,
 0x00,0x00,0x00,0x00,0x00,0x10,0x40,0x00,0x00,0x04,0x00,0x00,0x00,0x02,0x00,
 0x00,0x04,0x00,0x00,0x00,0x02,0x00,0x20,0x80,0x00,0x00,0x00,0x00,0x00,0x00,
 0x00,0x20,0x84,0x04,0x04,0x0c,0x04,0x04,0x04,0x04,0x04,0x04,0x06,0x04,0x04,
 0x04,0x05,0x04,0x24,0x44,0x00,0x00,0x00,0x00,0x00,0x00,0x00,0x40,0x00,0x01,
 0x00,0x10,0x00,0x00,0x00,0x08,0x00,0x00,0x01,0x00,0x00,0x80,0x00,0x00,0x10,
 0x20,0x00,0x00,0x00,0x00,0x00,0x00,0x00,0x80,0x40,0x42,0x40,0x60,0x40,0x40,
 0x40,0x48,0x40,0x40,0x41,0x40,0x40,0x40,0x40,0x40,0x48,0x10,0x00,0x00,0x00,
 0x00,0x00,0x00,0x00,0x00,0x01,0x0c,0x00,0xc0,0x00,0x00,0x00,0x10,0x00,0x80,
 0x00,0x00,0x00,0x30,0x00,0x00,0x06,0x0c,0x00,0x00,0x00,0x00,0x00,0x00,0x00,
 0x00,0x06,0x14,0x04,0x04,0x07,0x04,0x04,0x14,0x04,0x84,0x04,0x04,0x04,0x0c,
 0x04,0x04,0x05,0x02,0x00,0x00,0x00,0x00,0x00,0x00,0x00,0x00,0x08,0x20,0x00,
 0x00,0x0c,0x00,0x00,0x20,0x00,0x40,0x00,0x00,0x00,0x03,0x00,0xc0,0x00,0x01,
 0x00,0x00,0x00,0x00,0x00,0x00,0x00,0x00,0x50,0xc0,0x40,0x40,0x70,0x40,0x40,
 0x40,0x40,0x60,0x40,0x40,0xc0,0x40,0x40,0x60,0xc0,0x00,0x00,0x00,0x00,0x00,
 0x00,0x00,0x00,0x00,0x60,0x00,0x01,0x00,0xc0,0x00,0x00,0x80,0x00,0x10,0x00,
 0x00,0x30,0x00,0x00,0x18,0x20,0x00,0x00,0x00,0x00,0x00,0x00,0x00,0x00,0x00,
 0x80,0x04,0x06,0x04,0x04,0x07,0x04,0x04,0x05,0x0c,0x04,0x04,0x0c,0x04,0x04,
 0x04,0x14,0x00,0x00,0x00,0x00,0x00,0x00,0x00,0x00,0x00,0x00,0x03,0x0c,0x00,
 0x00,0x0c,0x00,0x00,0x02,0x04,0x00,0x00,0x03,0x00,0x00,0x03,0x0c,0x00,0x00,
 0x00,0x00,0x00,0x00,0x00,0x00,0x00,0x00,0x4c,0x70,0x40,0x40,0x70,0x40,0x40,
 0x42,0x42,0x40,0xe0,0x40,0x40,0xc0,0x40,0x03,0x00,0x00,0x00,0x00,0x00,0x00,
 0x00,0x00,0x00,0x00,0x30,0xc0,0x01,0x00,0x80,0x03,0x00,0x04,0x01,0x00,0x1c,
 0x00,0x00,0x38,0xc0,0x00,0x00,0x00,0x00,0x00,0x00,0x00,0x00,0x00,0x00,0x00,
 0xc0,0x04,0x06,0x04,0x04,0x0c,0x04,0x8c,0x04,0x04,0x07,0x04,0x04,0x07,0x34,
 0x00,0x00,0x00,0x00,0x00,0x00,0x00,0x00,0x00,0x00,0x00,0x00,0x07,0x38,0x00,
 0x00,0xf0,0x1f,0x50,0xc0,0xff,0x00,0x00,0xc0,0x00,0x0e,0x00,0x00,0x00,0x00,
 0x00,0x00,0x00,0x00,0x00,0x00,0x00,0x00,0xf8,0xc0,0x41,0x40,0x40,0xe0,0xff,
 0x7f,0x40,0x40,0x40,0x78,0xf0,0x01,0x00,0x00,0x00,0x00,0x00,0x00,0x00,0x00,
 0x00,0x00,0x00,0x00,0x00,0xff,0xfe,0x03,0x80,0xff,0x03,0xfe,0x1f,0x00,0xfe,
 0xf7,0x0f,0x00,0x00,0x00,0x00,0x00,0x00,0x00,0x00,0x00,0x00,0x00,0x00,0x00,
 0x00,0x00,0xff,0xff,0xff,0x07,0x00,0x00,0xff,0xff,0xff,0x0f,0x00,0x00,0x00,
 0x00,0x00,0x00,0x00,0x00,0x00,0x00,0x00,0x00,0x00,0x00,0x00,0x00,0x00,0xf8,
 0x0f,0x00,0x00,0x00,0x00,0xff,0x01,0x00,0x00,0x00,0x00,0x00,0x00,0x00,0x00,
 0x00,0x00,0x00,0x00,0x00,0x00,0x00,0x00,0x00,0x00,0x00,0x00,0x00,0x00,0x00,
 0x00,0x00,0x00,0x00,0x00,0x00,0x00,0x00,0x00,0x00,0x00,0x00,0x00,0x00,0x00,
 0x00,0x00,0x00,0x00,0x00,0x00,0x00,0x00,0x00,0x00,0x00,0x00,0x00,0x00,0x00,
 0x00,0x00,0x00,0x00,0x00,0x00,0x00,0x00,0x00,0x00,0x00,0x00,0x00,0x00,0x00,
 0x00,0x00,0x00,0x00,0x00,0x00,0x00,0x00,0x00,0x00,0x00,0x00,0x00,0x00,0x00,
 0x00,0x00,0x00,0x00,0x00,0x00,0x00,0x00,0x00,0x00,0x00,0x00,0x00,0x00,0x00,
 0x00,0x00,0x00,0x00,0x00,0x00,0x00,0x00,0x00,0x00,0x00,0x00,0x00,0x00,0x00,
 0x00,0x00,0x00,0x00,0x00,0x00,0x00,0x00,0x00,0x00,0x00,0x00,0x00,0x00,0x00,
 0x00,0x00,0x00,0x00,0x00,0x00,0x00,0x00,0x00,0x00,0x00,0x00,0x00,0x00,0x00,
 0x00,0x00,0x00,0x00,0x00,0x00,0x00,0x00,0x00,0x00,0x00,0x00,0x00,0x00,0x00,
 0x00,0x00,0x00,0x00,0x00,0x00,0x00,0x00,0x00,0x00,0x00,0x00,0x00,0x00,0x00,
 0x00,0x00,0x00,0x00,0x00,0x00,0x00,0x00,0x00,0x00,0x00,0x00,0x00,0x00,0x00,
 0x00,0x00,0x00,0x00,0x00,0x00,0x00,0x00,0x00,0x00,0x00,0x00,0x00,0x00,0x00,
 0x00,0x00,0x00,0x00,0x00,0x00,0x00,0x00,0x00,0x00,0x00,0x00,0x00,0x00,0x00,
 0x00,0x00,0x00,0x00,0x00,0x00,0x00,0x00,0x00,0x00,0x00,0x00,0x00,0x00,0x00,
 0x00,0x00,0x00,0x00,0x00,0x00,0x00,0x00,0x00,0x00,0x00,0x00,0x00,0x00,0x00,
 0x00,0x00,0x00,0x00,0x00,0x00,0x00,0x00,0x00,0x00,0x00,0x00,0x00,0x00,0x00,
 0x00,0x00,0x00,0x00,0x00,0x00,0x00,0x00,0x00,0x00,0x00,0x00,0x00,0x00,0x00,
 0x00,0x00,0x00,0x00,0x00,0x00,0x00,0x00,0x00,0x00,0x00,0x00,0x00,0x00,0x00,
 0x00,0x00};
